<svg width="24" height="24" viewBox="0 0 24 24" fill="none" xmlns="http://www.w3.org/2000/svg">
<g clip-path="url(#clip0_1_2474)">
<path fill-rule="evenodd" clip-rule="evenodd" d="M16.8426 6.54769C15.6036 5.36599 13.9501 4.72223 12.2392 4.74868C9.10863 4.74868 6.44981 6.86074 5.5018 9.70474V9.7048C4.99913 11.1952 4.99913 12.809 5.50179 14.2993H5.50619C6.45861 17.1389 9.11303 19.251 12.2437 19.251C13.8597 19.251 15.247 18.8376 16.3223 18.1076V18.1046C17.5878 17.2668 18.452 15.9484 18.721 14.4581H12.2393V9.8371H23.558C23.6991 10.6396 23.7653 11.4597 23.7653 12.2755C23.7653 15.9253 22.4609 19.0111 20.1913 21.1011L20.1937 21.1029C18.2051 22.9372 15.4757 23.9998 12.2392 23.9998C7.70204 23.9998 3.55286 21.4424 1.51575 17.3903V17.3902C-0.186243 13.9995 -0.186239 10.0046 1.51576 6.61386H1.51579L1.51575 6.61383C3.55286 2.55725 7.70204 -0.000167897 12.2392 -0.000167897C15.22 -0.0354426 18.0992 1.08453 20.2686 3.12164L16.8426 6.54769Z" fill="#98A2B3"/>
</g>
<defs>
<clipPath id="clip0_1_2474">
<rect width="24" height="24" fill="white"/>
</clipPath>
</defs>
</svg>
